<?xml version="1.0" standalone="no"?>
<!DOCTYPE svg PUBLIC "-//W3C//DTD SVG 20010904//EN"
 "http://www.w3.org/TR/2001/REC-SVG-20010904/DTD/svg10.dtd">
<svg version="1.0" xmlns="http://www.w3.org/2000/svg"
 width="152.000000pt" height="152.000000pt" viewBox="0 0 152.000000 152.000000"
 preserveAspectRatio="xMidYMid meet">
<metadata>
Created by potrace 1.14, written by Peter Selinger 2001-2017
</metadata>
<g transform="translate(0.000000,152.000000) scale(0.100000,-0.100000)"
fill="#000000" stroke="none">
<path d="M410 1407 l-335 -112 -3 -491 -2 -491 257 -118 c142 -65 296 -136
342 -157 l84 -39 51 21 c28 12 74 32 101 45 28 12 102 46 165 75 63 29 144 65
180 82 36 16 95 44 133 60 l67 31 0 487 0 487 -22 11 c-22 10 -542 184 -563
188 -5 1 -32 9 -58 18 -26 9 -51 16 -55 15 -4 0 -158 -51 -342 -112z"/>
</g>
</svg>
